# xmcd
#
# Track frame offsets:
# 150
# 18842
# 32962
# 45322
# 55132
# 67680
# 83937
# 99000
# 114675
# 130635
# 146542
# 162492
# 188125
# 205522
#
# Disc length: 2931 seconds
#
# Revision: 0
# Processed by: cddbd v1.4PL0 Copyright (c) Steve Scherf et al.
# Submitted via: Audion 2.6.0 (http://www.panic.com/audion/)
#
DISCID=ab0b710e
DTITLE=Prairie Oyster - String of Pearls-A Greatest Hits Collection
DYEAR=1900
DGENRE=
TTITLE0=Man in the Moon
TTITLE1=Goodbye, So Long, Hello
TTITLE2=Will I Do ('Til the Real Thing Comes Along)
TTITLE3=One Precious Love
TTITLE4=Everybody Knows
TTITLE5=Did You Fall in Love With Me
TTITLE6=Louisiette
TTITLE7=Such a Lonely One
TTITLE8=Black-Eyed Susan
TTITLE9=She Won't Be Lonely Long
TTITLE10=Unbelievable Love
TTITLE11=One Way Track
TTITLE12=Canadian Sunrise
TTITLE13=The Last Time I'll Feel Blue
EXTD=
EXTT0=
EXTT1=
EXTT2=
EXTT3=
EXTT4=
EXTT5=
EXTT6=
EXTT7=
EXTT8=
EXTT9=
EXTT10=
EXTT11=
EXTT12=
EXTT13=
PLAYORDER=
